<?xml version="1.0" encoding="UTF-8" standalone="no"?>
<!-- Uploaded to: SVG Repo, www.svgrepo.com, Generator: SVG Repo Mixer Tools -->

<svg
   width="604"
   height="226.16251"
   viewBox="0 0 48.32 18.093"
   fill="none"
   version="1.1"
   id="svg1147"
   sodipodi:docname="latex.svg"
   inkscape:version="1.1.2 (0a00cf5339, 2022-02-04)"
   xmlns:inkscape="http://www.inkscape.org/namespaces/inkscape"
   xmlns:sodipodi="http://sodipodi.sourceforge.net/DTD/sodipodi-0.dtd"
   xmlns="http://www.w3.org/2000/svg"
   xmlns:svg="http://www.w3.org/2000/svg">
  <defs
     id="defs1151" />
  <sodipodi:namedview
     id="namedview1149"
     pagecolor="#ffffff"
     bordercolor="#666666"
     borderopacity="1.0"
     inkscape:pageshadow="2"
     inkscape:pageopacity="0.0"
     inkscape:pagecheckerboard="0"
     showgrid="false"
     inkscape:zoom="1.0025"
     inkscape:cx="302.24439"
     inkscape:cy="114.71322"
     inkscape:window-width="1920"
     inkscape:window-height="1011"
     inkscape:window-x="0"
     inkscape:window-y="32"
     inkscape:window-maximized="1"
     inkscape:current-layer="svg1147"
     fit-margin-top="0"
     fit-margin-left="0"
     fit-margin-right="0"
     fit-margin-bottom="0" />
  <path
     d="m 10.685,8.642 h -0.482 c -0.192,1.966 -0.462,4.357 -3.855,4.357 H 4.786 c -0.905,0 -0.944,-0.136 -0.944,-0.772 V 1.991 c 0,-0.655 0,-0.925 1.812,-0.925 H 6.29 V 0.488 C 5.596,0.546 3.861,0.546 3.07,0.546 c -0.751,0 -2.255,0 -2.91,-0.058 v 0.578 h 0.443 c 1.485,0 1.523,0.212 1.523,0.906 v 10.12 c 0,0.694 -0.038,0.907 -1.523,0.907 H 0.16 v 0.597 h 10.005 z"
     fill="#000000"
     id="path1137"
     style="fill:#ffffff;fill-opacity:1;stroke:#000000;stroke-width:0.32;stroke-miterlimit:4;stroke-dasharray:none;stroke-opacity:1" />
  <path
     d="M 10.358,0.468 C 10.28,0.238 10.242,0.16 9.991,0.16 9.741,0.16 9.683,0.237 9.606,0.468 L 6.502,8.334 C 6.367,8.661 6.136,9.259 4.941,9.259 V 9.741 H 7.929 V 9.259 c -0.598,0 -0.964,-0.27 -0.964,-0.656 0,-0.096 0.02,-0.135 0.058,-0.27 L 7.678,6.676 h 3.817 l 0.771,1.966 a 0.65,0.65 0 0 1 0.077,0.231 c 0,0.386 -0.732,0.386 -1.099,0.386 v 0.482 h 3.798 V 9.259 h -0.27 c -0.906,0 -1.002,-0.135 -1.137,-0.52 l -3.277,-8.27 z m -0.771,1.37 1.715,4.356 H 7.871 L 9.587,1.837 Z"
     fill="#000000"
     id="path1139"
     style="fill:#ffffff;fill-opacity:1;stroke:#000000;stroke-width:0.32;stroke-miterlimit:4;stroke-dasharray:none;stroke-opacity:1" />
  <path
     d="m 25.799,0.603 h -11.74 l -0.347,4.318 h 0.463 c 0.27,-3.103 0.558,-3.74 3.47,-3.74 0.346,0 0.848,0 1.04,0.04 0.405,0.076 0.405,0.288 0.405,0.732 v 10.12 c 0,0.656 0,0.926 -2.024,0.926 h -0.771 v 0.597 c 0.79,-0.058 2.737,-0.058 3.624,-0.058 0.887,0 2.872,0 3.663,0.058 v -0.597 h -0.771 c -2.024,0 -2.024,-0.27 -2.024,-0.926 V 1.953 c 0,-0.386 0,-0.656 0.347,-0.733 0.212,-0.038 0.732,-0.038 1.098,-0.038 2.892,0 3.181,0.636 3.45,3.74 h 0.483 z"
     fill="#000000"
     id="path1141"
     style="fill:#fffffd;fill-opacity:1;stroke:#000000;stroke-width:0.32;stroke-miterlimit:4;stroke-dasharray:none;stroke-opacity:1" />
  <path
     d="m 36.131,12.98 h -0.482 c -0.482,2.949 -0.925,4.356 -4.221,4.356 h -2.545 c -0.906,0 -0.945,-0.135 -0.945,-0.771 v -5.128 h 1.716 c 1.87,0 2.082,0.617 2.082,2.255 h 0.482 V 8.603 h -0.482 c 0,1.639 -0.212,2.236 -2.082,2.236 H 27.938 V 6.232 c 0,-0.636 0.039,-0.77 0.945,-0.77 h 2.467 c 2.95,0 3.451,1.06 3.76,3.739 h 0.481 L 35.051,4.883 H 24.257 v 0.578 h 0.444 c 1.484,0 1.523,0.212 1.523,0.906 V 16.43 c 0,0.694 -0.039,0.906 -1.523,0.906 h -0.444 v 0.597 h 11.065 l 0.81,-4.954 z"
     fill="#000000"
     id="path1143"
     style="fill:#fdffff;fill-opacity:1;stroke:#000000;stroke-width:0.32;stroke-miterlimit:4;stroke-dasharray:none;stroke-opacity:1" />
  <path
     d="M 41.933,6.174 44.574,2.319 C 44.979,1.702 45.634,1.085 47.35,1.066 V 0.488 h -4.588 v 0.578 c 0.772,0.02 1.196,0.443 1.196,0.887 0,0.192 -0.039,0.231 -0.174,0.443 L 41.586,5.635 39.119,1.933 C 39.08,1.876 38.984,1.721 38.984,1.644 c 0,-0.231 0.424,-0.559 1.234,-0.578 V 0.488 c -0.656,0.058 -2.063,0.058 -2.795,0.058 -0.598,0 -1.793,-0.02 -2.506,-0.058 v 0.578 h 0.366 c 1.06,0 1.426,0.135 1.793,0.675 l 3.527,5.34 -3.142,4.645 c -0.27,0.386 -0.848,1.273 -2.776,1.273 v 0.597 h 4.588 v -0.597 c -0.886,-0.02 -1.214,-0.54 -1.214,-0.887 0,-0.174 0.058,-0.25 0.193,-0.463 l 2.718,-4.029 3.045,4.588 c 0.039,0.077 0.097,0.154 0.097,0.212 0,0.232 -0.424,0.56 -1.253,0.579 v 0.597 c 0.675,-0.058 2.082,-0.058 2.795,-0.058 0.81,0 1.696,0.02 2.506,0.058 v -0.597 h -0.366 c -1.003,0 -1.407,-0.097 -1.812,-0.694 l -4.049,-6.13 z"
     fill="#000000"
     id="path1145"
     style="fill:#ffffff;fill-opacity:1;stroke:#000000;stroke-width:0.32;stroke-miterlimit:4;stroke-dasharray:none;stroke-opacity:1" />
</svg>
