<?xml version="1.0" encoding="UTF-8" standalone="no"?>
<svg
   viewBox="0 0 48 48"
   width="48px"
   height="48px"
   version="1.1"
   id="svg74089"
   sodipodi:docname="node.svg"
   inkscape:version="1.1.2 (0a00cf5339, 2022-02-04)"
   xmlns:inkscape="http://www.inkscape.org/namespaces/inkscape"
   xmlns:sodipodi="http://sodipodi.sourceforge.net/DTD/sodipodi-0.dtd"
   xmlns="http://www.w3.org/2000/svg"
   xmlns:svg="http://www.w3.org/2000/svg">
  <defs
     id="defs74093" />
  <sodipodi:namedview
     id="namedview74091"
     pagecolor="#ffffff"
     bordercolor="#666666"
     borderopacity="1.0"
     inkscape:pageshadow="2"
     inkscape:pageopacity="0.0"
     inkscape:pagecheckerboard="0"
     showgrid="false"
     inkscape:zoom="17.479167"
     inkscape:cx="23.971395"
     inkscape:cy="24.028605"
     inkscape:window-width="1920"
     inkscape:window-height="1011"
     inkscape:window-x="0"
     inkscape:window-y="32"
     inkscape:window-maximized="1"
     inkscape:current-layer="svg74089" />
  <rect
     style="fill:#ffffff;fill-opacity:1;stroke:#ffffff;stroke-width:0.5;stroke-miterlimit:4;stroke-dasharray:none;stroke-opacity:1;stroke-linejoin:round"
     id="rect74794"
     width="48.257267"
     height="19.836157"
     x="-0.050108481"
     y="11.929499" />
  <g
     id="g74770"
     transform="translate(0.07852502,0.32408582)">
    <path
       id="path74079"
       d="m 17.5,19.046875 c -0.103,0 -0.204875,0.02322 -0.296875,0.07422 l -4.90625,2.716797 C 12.112875,21.938891 12,22.125125 12,22.328125 v 5.433594 c 0,0.203 0.112875,0.390187 0.296875,0.492187 l 4.908203,2.716797 c 0.183,0.101 0.41075,0.101 0.59375,0 l 4.90625,-2.716797 C 22.887078,28.151906 23,27.964719 23,27.761719 v -5.433594 c 0,-0.203 -0.112875,-0.388234 -0.296875,-0.490234 l -4.90625,-2.716797 C 17.704875,19.070094 17.602,19.046875 17.5,19.046875 Z M 42.5,24 c -0.017,0 -0.03383,0.0047 -0.04883,0.01367 l -0.81836,0.451172 c -0.031,0.017 -0.04883,0.04803 -0.04883,0.08203 v 0.90625 c 0,0.034 0.01883,0.06503 0.04883,0.08203 l 0.81836,0.453125 c 0.031,0.017 0.06861,0.017 0.09961,0 l 0.816407,-0.453125 c 0.03,-0.017 0.05078,-0.04803 0.05078,-0.08203 v -0.90625 c 0,-0.034 -0.01978,-0.06503 -0.05078,-0.08203 L 42.548827,24.01367 C 42.533828,24.004672 42.517,24 42.5,24 Z"
       style="fill:#388e3c;fill-opacity:1" />
    <path
       fill="#37474f"
       d="m 35.751,13.364 -2.389,-1.333 c -0.075,-0.042 -0.167,-0.041 -0.241,0.003 -0.074,0.044 -0.12,0.123 -0.12,0.209 L 33,20.295 30.797,19.076 C 30.705,19.025 30.602,19 30.5,19 c -0.102,0 -0.205,0.025 -0.297,0.076 h 0.001 l -4.907,2.715 C 25.113,21.892 25,22.08 25,22.282 v 5.433 c 0,0.203 0.113,0.39 0.297,0.492 l 4.908,2.717 c 0.183,0.101 0.41,0.101 0.593,0 l 4.907,-2.717 C 35.887,28.106 36,27.918 36,27.715 V 13.788 c 0,-0.176 -0.096,-0.338 -0.249,-0.424 z m -2.885,13.094 -2.23,1.235 c -0.083,0.046 -0.186,0.046 -0.269,0 L 28.136,26.458 C 28.051,26.412 28,26.326 28,26.234 v -2.47 c 0,-0.092 0.051,-0.177 0.135,-0.224 l 2.231,-1.234 h -0.001 c 0.042,-0.023 0.088,-0.034 0.135,-0.034 0.047,0 0.093,0.012 0.135,0.034 l 2.23,1.234 C 32.949,23.587 33,23.673 33,23.765 v 2.47 c 0,0.091 -0.051,0.177 -0.134,0.223 z"
       id="path74081" />
    <path
       fill="#2e7d32"
       d="M 17.204,19.122 12,27.762 c 0,0.203 0.113,0.39 0.297,0.492 l 4.908,2.717 c 0.183,0.101 0.41,0.101 0.593,0 L 23,22.329 c 0,-0.203 -0.113,-0.39 -0.297,-0.492 l -4.906,-2.715 c -0.092,-0.051 -0.195,-0.076 -0.297,-0.076 -0.103,0 -0.205,0.025 -0.297,0.076"
       id="path74083" />
    <path
       fill="#4caf50"
       d="m 17.204,19.122 -4.907,2.715 C 12.113,21.938 12,22.126 12,22.329 l 5.204,8.642 c 0.183,0.101 0.41,0.101 0.593,0 l 4.907,-2.717 C 22.887,28.152 23,27.965 23,27.762 l -5.203,-8.64 c -0.092,-0.051 -0.195,-0.076 -0.297,-0.076 -0.103,0 -0.205,0.025 -0.297,0.076"
       id="path74085" />
    <path
       fill="#37474f"
       d="M 47.703,21.791 42.797,19.076 C 42.705,19.025 42.602,19 42.5,19 c -0.102,0 -0.205,0.025 -0.297,0.076 h 10e-4 l -4.907,2.715 C 37.114,21.892 37,22.084 37,22.294 v 5.411 c 0,0.209 0.114,0.402 0.297,0.503 l 4.908,2.717 c 0.184,0.102 0.409,0.102 0.593,0 l 2.263,-1.253 c 0.207,-0.115 0.206,-0.412 -0.002,-0.526 L 40.135,26.459 C 40.052,26.412 40,26.325 40,26.231 v -2.466 c 0,-0.092 0.05,-0.177 0.13,-0.221 l 2.235,-1.236 h -0.001 c 0.042,-0.023 0.088,-0.034 0.135,-0.034 0.047,0 0.093,0.012 0.135,0.034 l 2.235,1.237 c 0.08,0.044 0.13,0.129 0.13,0.221 v 2.012 c 0,0.086 0.046,0.166 0.121,0.209 0.075,0.042 0.167,0.042 0.242,-10e-4 L 47.76,24.593 C 47.908,24.507 48,24.348 48,24.176 v -1.88 c 0,-0.211 -0.114,-0.404 -0.297,-0.505 z m -37,0 -4.906,-2.715 C 5.705,19.025 5.602,19 5.5,19 5.398,19 5.295,19.025 5.203,19.076 H 5.204 L 0.297,21.791 C 0.114,21.892 0,22.084 0,22.294 v 7.465 c 0,0.086 0.046,0.166 0.121,0.209 0.075,0.042 0.167,0.042 0.242,-0.001 L 2.761,28.574 C 2.909,28.488 3,28.329 3,28.157 v -4.393 c 0,-0.092 0.05,-0.177 0.13,-0.221 l 2.235,-1.236 v 0 c 0.042,-0.023 0.088,-0.034 0.135,-0.034 0.047,0 0.093,0.012 0.135,0.034 L 7.87,23.544 C 7.95,23.588 8,23.673 8,23.765 v 4.393 c 0,0.172 0.091,0.331 0.24,0.417 l 2.398,1.393 c 0.075,0.043 0.167,0.043 0.242,0.001 0.074,-0.044 0.12,-0.124 0.12,-0.21 v -7.464 c 0,-0.21 -0.114,-0.403 -0.297,-0.504 z"
       id="path74087" />
  </g>
</svg>
